<?xml version="1.0" standalone="no"?><!DOCTYPE svg PUBLIC "-//W3C//DTD SVG 1.1//EN" "http://www.w3.org/Graphics/SVG/1.1/DTD/svg11.dtd"><svg id="SvgjsSvg1001" width="100%" height="100%" version="1.1" xmlns:svgjs="http://svgjs.com/svgjs" preserveAspectRatio="xMidYMid meet" viewBox="0 -0.0000014491654383164132 197.68911743164062 147" overflow="visible" xmlns="http://www.w3.org/2000/svg" xmlns:xlink="http://www.w3.org/1999/xlink" style="cursor:pointer;font-family:Ubuntu, sans-serif;height:148.188px;list-style-type:none;overflow-x:visible;overflow-y:visible;text-align:center;perspective-origin:150px 74.0938px;transform-origin:150px 74.0938px;"><defs id="SvgjsDefs1002" style="cursor:pointer;font-family:Ubuntu, sans-serif;height:auto;list-style-type:none;overflow-x:visible;overflow-y:visible;text-align:center;width:auto;perspective-origin:0px 0px;transform-origin:0px 0px;"/><g id="SvgjsG1008" transform="scale(0.7402423730169918)" opacity="1" style="cursor:pointer;font-family:Ubuntu, sans-serif;height:auto;list-style-type:none;overflow-x:visible;overflow-y:visible;text-align:center;width:auto;perspective-origin:0px 0px;transform:matrix(0.740242, 0, 0, 0.740242, 0, 0);transform-origin:0px 0px;"><g id="SvgjsG1009" class="mwlM0GdV6" transform="translate(45.244974826010406, -21.520026517986306) scale(1.7639366274123376)" light-content="false" non-strokable="false" fill="#1f5fa8" style="cursor:pointer;font-family:Ubuntu, sans-serif;height:auto;list-style-type:none;overflow-x:visible;overflow-y:visible;text-align:center;width:auto;perspective-origin:0px 0px;transform:matrix(1.76394, 0, 0, 1.76394, 45.245, -21.52);transform-origin:0px 0px;fill:rgb(31, 95, 168);"><path d="M19.4 63.1H25c.3 0 .5-.2.5-.5V31.7c0-3.4 2.8-6.2 6.2-6.2h30.9c.3 0 .5-.2.5-.5v-5.6c0-4-3.2-7.2-7.2-7.2H19.4c-4 0-7.2 3.2-7.2 7.2V56c0 3.9 3.2 7.1 7.2 7.1zM36.9 75v5.6c0 4 3.2 7.2 7.2 7.2h36.6c4 0 7.2-3.2 7.2-7.2V44c0-4-3.2-7.2-7.2-7.2H75c-.3 0-.5.2-.5.5v30.9c0 3.4-2.8 6.2-6.2 6.2H37.4c-.3.1-.5.3-.5.6z" style="cursor:pointer;font-family:Ubuntu, sans-serif;height:auto;list-style-type:none;overflow-x:visible;overflow-y:visible;text-align:center;width:auto;perspective-origin:0px 0px;transform-origin:0px 0px;fill:rgb(31, 95, 168);d:path(&quot;M 19.4 63.1 H 25 C 25.3 63.1 25.5 62.9 25.5 62.6 V 31.7 C 25.5 28.3 28.3 25.5 31.7 25.5 H 62.6 C 62.9 25.5 63.1 25.3 63.1 25 V 19.4 C 63.1 15.4 59.9 12.2 55.9 12.2 H 19.4 C 15.4 12.2 12.2 15.4 12.2 19.4 V 56 C 12.2 59.9 15.4 63.1 19.4 63.1 Z M 36.9 75 V 80.6 C 36.9 84.6 40.1 87.8 44.1 87.8 H 80.7 C 84.7 87.8 87.9 84.6 87.9 80.6 V 44 C 87.9 40 84.7 36.8 80.7 36.8 H 75 C 74.7 36.8 74.5 37 74.5 37.3 V 68.2 C 74.5 71.6 71.7 74.4 68.3 74.4 H 37.4 C 37.1 74.5 36.9 74.7 36.9 75 Z&quot;);"/><path d="M37.4 63.1H56c4 0 7.2-3.2 7.2-7.2V37.4c0-.3-.2-.5-.5-.5H44c-4 0-7.2 3.2-7.2 7.2v18.6c.1.2.3.4.6.4z" style="cursor:pointer;font-family:Ubuntu, sans-serif;height:auto;list-style-type:none;overflow-x:visible;overflow-y:visible;text-align:center;width:auto;perspective-origin:0px 0px;transform-origin:0px 0px;fill:rgb(31, 95, 168);d:path(&quot;M 37.4 63.1 H 56 C 60 63.1 63.2 59.9 63.2 55.9 V 37.4 C 63.2 37.1 63 36.9 62.7 36.9 H 44 C 40 36.9 36.8 40.1 36.8 44.1 V 62.7 C 36.9 62.9 37.1 63.1 37.4 63.1 Z&quot;);"/></g><g id="SvgjsG1010" class="text" transform="translate(134.07000732421875, 198.58360588305536) scale(1)" light-content="false" fill="#212121" style="cursor:pointer;font-family:Ubuntu, sans-serif;height:auto;list-style-type:none;overflow-x:visible;overflow-y:visible;text-align:center;width:auto;perspective-origin:0px 0px;transform:matrix(1, 0, 0, 1, 134.07, 198.584);transform-origin:0px 0px;fill:rgb(33, 33, 33);"><path d="M-107.85 0L-115.91 -16.55C-114.27 -16.67 -112.71 -17 -111.22 -17.55C-109.74 -18.1 -108.42 -18.82 -107.25 -19.72C-106.09 -20.62 -105.09 -21.7 -104.25 -22.98C-103.41 -24.26 -102.83 -25.7 -102.52 -27.3C-101.72 -30.94 -102.28 -33.67 -104.21 -35.49C-106.13 -37.32 -109.19 -38.23 -113.39 -38.23L-125.99 -38.23L-134.07 0L-130.06 0L-126.57 -16.38L-120.63 -16.38L-112.95 0ZM-106.65 -27.3C-107.22 -24.67 -108.43 -22.76 -110.29 -21.58C-112.14 -20.4 -114.47 -19.8 -117.29 -19.8L-125.87 -19.8L-122.68 -34.8L-114.09 -34.8C-111.3 -34.8 -109.23 -34.2 -107.87 -33C-106.51 -31.8 -106.11 -29.9 -106.65 -27.3Z M-74.93 0L-74.2 -3.43L-80.38 -3.43L-73.73 -34.8L-67.55 -34.8L-66.81 -38.23L-83.19 -38.23L-83.92 -34.8L-77.74 -34.8L-84.39 -3.43L-90.57 -3.43L-91.31 0Z M-20.74 -38.23L-25.13 -38.23L-43.5 -4.07L-47.4 -38.23L-51.64 -38.23L-47.1 0L-41.62 0Z M9.9 0L5.27 -38.23L-0.18 -38.23L-21.01 0L-16.67 0L-10.87 -10.93L4.28 -10.93L5.6 0ZM3.9 -14.47L-8.94 -14.47L1.67 -34.19Z M45.35 0L46.08 -3.43L25.69 -3.43L33.07 -38.23L29.03 -38.23L20.94 0Z M85.92 0L77.86 -16.55C79.5 -16.67 81.06 -17 82.55 -17.55C84.03 -18.1 85.35 -18.82 86.52 -19.72C87.68 -20.62 88.68 -21.7 89.52 -22.98C90.36 -24.26 90.94 -25.7 91.25 -27.3C92.05 -30.94 91.49 -33.67 89.56 -35.49C87.64 -37.32 84.58 -38.23 80.38 -38.23L67.78 -38.23L59.7 0L63.71 0L67.2 -16.38L73.14 -16.38L80.82 0ZM87.12 -27.3C86.55 -24.67 85.34 -22.76 83.48 -21.58C81.63 -20.4 79.29 -19.8 76.48 -19.8L67.9 -19.8L71.09 -34.8L79.68 -34.8C82.47 -34.8 84.54 -34.2 85.9 -33C87.26 -31.8 87.66 -29.9 87.12 -27.3Z M132.29 -34.8L132.99 -38.23L122.21 -38.23L121.48 -34.8L124.67 -34.8L115 -20.39L111.4 -34.8L114.59 -34.8L115.29 -38.23L104.51 -38.23L103.78 -34.8L106.92 -34.8L112.13 -16.49L109.38 -3.43L103.2 -3.43L102.46 0L118.84 0L119.57 -3.43L113.39 -3.43L116.14 -16.49L129.15 -34.8Z" style="cursor:pointer;font-family:Ubuntu, sans-serif;height:auto;list-style-type:none;overflow-x:visible;overflow-y:visible;text-align:center;width:auto;perspective-origin:0px 0px;transform-origin:0px 0px;fill:rgb(33, 33, 33);d:path(&quot;M -107.85 0 L -115.91 -16.55 C -114.27 -16.67 -112.71 -17 -111.22 -17.55 C -109.74 -18.1 -108.42 -18.82 -107.25 -19.72 C -106.09 -20.62 -105.09 -21.7 -104.25 -22.98 C -103.41 -24.26 -102.83 -25.7 -102.52 -27.3 C -101.72 -30.94 -102.28 -33.67 -104.21 -35.49 C -106.13 -37.32 -109.19 -38.23 -113.39 -38.23 L -125.99 -38.23 L -134.07 0 L -130.06 0 L -126.57 -16.38 L -120.63 -16.38 L -112.95 0 Z M -106.65 -27.3 C -107.22 -24.67 -108.43 -22.76 -110.29 -21.58 C -112.14 -20.4 -114.47 -19.8 -117.29 -19.8 L -125.87 -19.8 L -122.68 -34.8 L -114.09 -34.8 C -111.3 -34.8 -109.23 -34.2 -107.87 -33 C -106.51 -31.8 -106.11 -29.9 -106.65 -27.3 Z M -74.93 0 L -74.2 -3.43 L -80.38 -3.43 L -73.73 -34.8 L -67.55 -34.8 L -66.81 -38.23 L -83.19 -38.23 L -83.92 -34.8 L -77.74 -34.8 L -84.39 -3.43 L -90.57 -3.43 L -91.31 0 Z M -20.74 -38.23 L -25.13 -38.23 L -43.5 -4.07 L -47.4 -38.23 L -51.64 -38.23 L -47.1 0 L -41.62 0 Z M 9.9 0 L 5.27 -38.23 L -0.18 -38.23 L -21.01 0 L -16.67 0 L -10.87 -10.93 L 4.28 -10.93 L 5.6 0 Z M 3.9 -14.47 L -8.94 -14.47 L 1.67 -34.19 Z M 45.35 0 L 46.08 -3.43 L 25.69 -3.43 L 33.07 -38.23 L 29.03 -38.23 L 20.94 0 Z M 85.92 0 L 77.86 -16.55 C 79.5 -16.67 81.06 -17 82.55 -17.55 C 84.03 -18.1 85.35 -18.82 86.52 -19.72 C 87.68 -20.62 88.68 -21.7 89.52 -22.98 C 90.36 -24.26 90.94 -25.7 91.25 -27.3 C 92.05 -30.94 91.49 -33.67 89.56 -35.49 C 87.64 -37.32 84.58 -38.23 80.38 -38.23 L 67.78 -38.23 L 59.7 0 L 63.71 0 L 67.2 -16.38 L 73.14 -16.38 L 80.82 0 Z M 87.12 -27.3 C 86.55 -24.67 85.34 -22.76 83.48 -21.58 C 81.63 -20.4 79.29 -19.8 76.48 -19.8 L 67.9 -19.8 L 71.09 -34.8 L 79.68 -34.8 C 82.47 -34.8 84.54 -34.2 85.9 -33 C 87.26 -31.8 87.66 -29.9 87.12 -27.3 Z M 132.29 -34.8 L 132.99 -38.23 L 122.21 -38.23 L 121.48 -34.8 L 124.67 -34.8 L 115 -20.39 L 111.4 -34.8 L 114.59 -34.8 L 115.29 -38.23 L 104.51 -38.23 L 103.78 -34.8 L 106.92 -34.8 L 112.13 -16.49 L 109.38 -3.43 L 103.2 -3.43 L 102.46 0 L 118.84 0 L 119.57 -3.43 L 113.39 -3.43 L 116.14 -16.49 L 129.15 -34.8 Z&quot;);"/></g></g></svg>